<svg width="200" height="159" viewBox="0 0 200 159" fill="none" xmlns="http://www.w3.org/2000/svg">
<path d="M170.985 22.0953V25.2517H108.392V16.236H77.8569V6.30348C77.8569 2.83042 75.465 0 72.5211 0H51.13C48.1901 0 45.7942 2.8257 45.7942 6.30348V16.2312H24.903C19.5872 16.2312 15.2634 21.3392 15.2634 27.6191V29.5895L4.53982 32.4861C2.00392 32.7413 0 35.2646 0 38.3312V48.2401C0 51.4769 2.22791 54.1089 4.9678 54.1089H15.2674V82.3989C15.2674 88.6788 19.5912 93.7868 24.907 93.7868H29.1428V108.213H65.6494V159L68.9372 158.702C76.7769 157.989 91.6043 152.55 91.6043 137.07V115.901C91.9603 114.587 93.7122 110.018 100.764 110.018H103.816V102.803H128.243V106.498C128.243 108.912 129.907 110.864 131.939 110.864H156.61C158.642 110.864 160.306 108.917 160.306 106.498V102.803H167.937V95.5871H160.306V91.892C160.306 89.4774 158.642 87.5258 156.61 87.5258H147.39V77.5508H170.993V80.7073L200 85.2766V17.526L170.985 22.0953ZM156.778 32.4672V70.3401H129.867V32.4672H156.778ZM123.759 32.4672V70.3401H108.392V32.4672H123.759ZM51.9059 7.21546H71.7531V16.2312H51.9059V7.21546ZM6.10776 46.8934V39.4653L15.2674 36.9893V46.8934H6.10776ZM21.3751 82.3989V54.1089V27.9404V27.6191C21.3751 25.3179 22.9591 23.4467 24.907 23.4467H45.8022H77.8609H102.288V25.2517V77.5556V86.5713H24.903C22.9591 86.5713 21.3751 84.7001 21.3751 82.3989ZM85.5526 114.72L85.4926 137.07C85.4926 146.228 76.7009 149.682 71.7531 150.896V101.002H35.2466V93.7868H97.7041V103.044C89.5164 104.386 86.1766 111.029 85.5526 114.72ZM154.194 94.7413V95.5871V102.803V103.648H134.347V102.803V95.5871V94.7413H141.278H147.386H154.194ZM141.278 87.5306H131.935C129.903 87.5306 128.239 89.4774 128.239 91.8967V95.5918H103.812V93.7868H108.392V77.5556H141.274V87.5306H141.278ZM162.881 70.3401V32.4672H170.985V70.3401H162.881ZM193.884 77.0405L177.093 74.3944V28.4082L193.884 25.7621V77.0405Z" fill="white"/>
<path d="M71.7532 68.535C70.2652 68.535 68.9173 69.1919 67.8573 70.2361L54.8178 64.632C54.9018 63.8381 54.9618 63.0396 54.9618 62.2174C54.9618 51.7746 47.7701 43.2786 38.9305 43.2786C30.0908 43.2786 22.8991 51.7746 22.8991 62.2174C22.8991 72.6602 30.0908 81.1562 38.9305 81.1562C44.9222 81.1562 50.146 77.2484 52.8979 71.4836L65.7574 77.0074C66.2654 80.386 68.7493 82.9612 71.7572 82.9612C75.129 82.9612 77.8649 79.7292 77.8649 75.7458C77.8609 71.7671 75.125 68.535 71.7532 68.535ZM38.9305 73.9455C33.4587 73.9455 29.0069 68.6862 29.0069 62.2221C29.0069 55.758 33.4587 50.4987 38.9305 50.4987C44.3583 50.4987 48.7781 55.6776 48.8461 62.0709L39.2105 57.9316L37.1225 64.7123L47.0301 68.9698C45.2342 71.975 42.2743 73.9455 38.9305 73.9455Z" fill="white"/>
</svg>
