<?xml version="1.0" encoding="utf-8"?>
<!-- Generator: Adobe Illustrator 22.1.0, SVG Export Plug-In . SVG Version: 6.00 Build 0)  -->
<svg version="1.1" id="Layer_1" xmlns="http://www.w3.org/2000/svg" xmlns:xlink="http://www.w3.org/1999/xlink" x="0px" y="0px"
	 viewBox="0 0 1500 326.5" style="enable-background:new 0 0 1500 326.5;" xml:space="preserve">
<style type="text/css">
	.st0{fill:#FFFFFF;}
	.st1{fill:#F1A400;}
</style>
<g>
	<g>
		<path class="st0" d="M122.3,261.7l38-258.1h45.6L157.1,320H83L34.2,3.6h50.2L122.3,261.7z"/>
		<path class="st0" d="M219.5,3.6h49.7V320h-49.7V3.6z"/>
		<path class="st0" d="M293.6,3.6h78.6c25,0,43.6,6.6,55.8,19.9c12.2,13.3,18.3,32.7,18.3,58.3v160c0,25.6-6.1,45-18.3,58.3
			c-12.2,13.3-30.8,19.9-55.8,19.9h-78.6L293.6,3.6L293.6,3.6z M343.3,48.8v226h28c7.8,0,14-2.3,18.5-6.8s6.8-12.5,6.8-24V79.5
			c0-11.5-2.3-19.4-6.8-24s-10.7-6.8-18.5-6.8L343.3,48.8L343.3,48.8z"/>
		<path class="st0" d="M518.7,136.9h68.3v45.2h-68.3v92.7h85.9V320H468.9V3.6h135.6v45.2h-85.9L518.7,136.9L518.7,136.9z"/>
		<path class="st0" d="M624.4,79.5c0-25.6,6.5-45.3,19.4-59c13-13.7,31.6-20.6,56-20.6c24.4,0,43.1,6.9,56,20.6
			c13,13.7,19.4,33.4,19.4,59V244c0,25.6-6.5,45.3-19.4,59c-13,13.7-31.6,20.6-56,20.6c-24.4,0-43.1-6.8-56-20.6
			c-13-13.7-19.4-33.4-19.4-59V79.5z M674.1,247.2c0,11.5,2.3,19.5,7,24.2c4.7,4.7,10.9,7,18.8,7c7.8,0,14.1-2.3,18.8-7
			c4.7-4.7,7-12.7,7-24.2V76.4c0-11.5-2.3-19.5-7-24.2c-4.7-4.7-10.9-7-18.8-7s-14.1,2.3-18.8,7c-4.7,4.7-7,12.7-7,24.2V247.2z"/>
	</g>
	<g>
		<path class="st1" d="M815.9,320.9c-1.1,0-1.7-0.6-1.7-1.7v-55.7c0-1.1,0.6-1.7,1.7-1.7h36c7.1,0,12.1,1.8,15.2,5.3
			s4.6,9.1,4.6,16.9v15c0,7.7-1.5,13.3-4.6,16.7c-3,3.4-8.1,5.1-15.2,5.1L815.9,320.9L815.9,320.9z M822.4,313h28.8
			c4.6,0,7.8-1,9.7-2.9s2.7-5.6,2.7-11.2v-15c0-5.5-0.9-9.3-2.7-11.2c-1.8-2-5-3-9.7-3h-28.8V313z"/>
		<path class="st1" d="M885.2,320.9c-1.1,0-1.7-0.6-1.7-1.7v-55.7c0-1.1,0.6-1.7,1.7-1.7h4.8c1.1,0,1.7,0.6,1.7,1.7v55.7
			c0,1.1-0.6,1.7-1.7,1.7H885.2z"/>
		<path class="st1" d="M906.5,320.9c-1.1,0-1.7-0.6-1.7-1.7v-55.7c0-1.1,0.6-1.7,1.7-1.7h6c0.9,0,1.6,0.4,2,1.1l23.9,38.3l23.9-38.3
			c0.5-0.7,1.1-1.1,2-1.1h5.9c1.1,0,1.7,0.6,1.7,1.7v55.7c0,1.1-0.6,1.7-1.7,1.7h-4.8c-1.1,0-1.7-0.6-1.7-1.7v-43.8l-21.7,34
			c-0.5,0.7-1.1,1.1-2,1.1h-3.4c-0.9,0-1.6-0.4-2-1.1L913,275.4v43.9c0,1.1-0.6,1.7-1.7,1.7L906.5,320.9L906.5,320.9z"/>
		<path class="st1" d="M1040.6,320.9c-0.8,0-1.5-0.4-1.9-1.3l-5-10h-39.1l-5.1,10c-0.4,0.8-1,1.2-1.9,1.2h-5.6c-0.6,0-1-0.2-1.3-0.6
			c-0.3-0.4-0.2-0.9,0-1.4l28.6-55.8c0.4-0.8,1-1.2,1.9-1.2h5.8c0.9,0,1.5,0.4,1.9,1.2l28.5,55.8c0.3,0.6,0.3,1,0,1.4
			c-0.3,0.4-0.7,0.6-1.3,0.6H1040.6z M998.1,302.7h32.1l-16-31.9L998.1,302.7z"/>
		<path class="st1" d="M1081.3,320.9c-1.1,0-1.7-0.6-1.7-1.7v-55.7c0-1.1,0.6-1.7,1.7-1.7h4.8c1.1,0,1.7,0.6,1.7,1.7v24h13.5
			l23.4-24.7c0.6-0.6,1.3-0.9,2.1-0.9h6.1c0.7,0,1.2,0.2,1.4,0.6c0.2,0.4,0,0.9-0.5,1.5l-25.6,27.3l25.6,27.6c0.5,0.6,0.7,1,0.5,1.5
			c-0.2,0.4-0.7,0.6-1.4,0.6h-6c-0.8,0-1.5-0.3-2.1-0.9l-23.5-24.7h-13.5v23.9c0,1.1-0.6,1.7-1.7,1.7L1081.3,320.9L1081.3,320.9z"/>
		<path class="st1" d="M1162.9,320.9c-7,0-12-1.7-15.1-5.1s-4.7-8.5-4.7-15.2v-37c0-1.1,0.6-1.7,1.7-1.7h4.8c1.1,0,1.7,0.6,1.7,1.7
			v37.3c0,4.6,0.9,7.8,2.6,9.5c1.7,1.7,4.7,2.6,9,2.6h18.1c4.3,0,7.3-0.9,9-2.6c1.7-1.7,2.6-4.9,2.6-9.5v-37.3
			c0-1.1,0.6-1.7,1.7-1.7h4.9c1.1,0,1.7,0.6,1.7,1.7v37c0,6.7-1.6,11.7-4.7,15.2s-8.2,5.1-15.1,5.1L1162.9,320.9L1162.9,320.9z"/>
		<path class="st1" d="M1232.8,320.9c-7,0-12-1.7-15.1-5.1s-4.7-8.5-4.7-15.2v-18.3c0-6.7,1.6-11.8,4.7-15.3
			c3.1-3.4,8.2-5.1,15.1-5.1h18.6c7,0,12,1.7,15.1,5.1s4.7,8.5,4.7,15.3v0.7c0,1.1-0.6,1.7-1.7,1.7h-4.8c-1.1,0-1.7-0.5-1.7-1.3V282
			c0-4.7-0.9-7.9-2.6-9.6s-4.7-2.6-9-2.6h-18.6c-4.3,0-7.3,0.9-9,2.6c-1.7,1.7-2.6,4.9-2.6,9.6v18.8c0,4.6,0.9,7.8,2.6,9.5
			c1.7,1.7,4.7,2.6,9,2.6h18.6c4.3,0,7.3-0.9,9-2.6c1.7-1.7,2.6-4.9,2.6-9.5V299c0-1.1,0.6-1.7,1.7-1.7h4.8c1.1,0,1.7,0.5,1.7,1.6
			v1.7c0,6.7-1.6,11.7-4.7,15.2s-8.2,5.1-15.1,5.1L1232.8,320.9L1232.8,320.9z"/>
		<path class="st1" d="M1284.1,320.9c-1.1,0-1.7-0.6-1.7-1.7v-55.7c0-1.1,0.6-1.7,1.7-1.7h4.8c1.1,0,1.7,0.6,1.7,1.7V287h37.8v-23.5
			c0-1.1,0.6-1.7,1.7-1.7h4.9c1.1,0,1.7,0.6,1.7,1.7v55.7c0,1.1-0.6,1.7-1.7,1.7h-4.9c-1.1,0-1.7-0.6-1.7-1.7v-24.6h-37.8v24.6
			c0,1.1-0.6,1.7-1.7,1.7H1284.1z"/>
		<path class="st1" d="M1351.3,320.9c-1.1,0-1.7-0.6-1.7-1.7v-55.7c0-1.1,0.6-1.7,1.7-1.7h46.6c1.1,0,1.7,0.6,1.7,1.7v4.6
			c0,1.1-0.6,1.7-1.7,1.7h-40V287h27.3c1.1,0,1.7,0.6,1.7,1.7v4.3c0,1.1-0.6,1.7-1.7,1.7h-27.3V313h40c1.1,0,1.7,0.6,1.7,1.7v4.6
			c0,1.1-0.6,1.7-1.7,1.7L1351.3,320.9L1351.3,320.9z"/>
		<path class="st1" d="M1465.8,283.3c0,5.6-1,9.9-3.1,13s-5.5,5.2-10.3,6.2l11.4,16.4c0.4,0.6,0.5,1,0.3,1.4
			c-0.2,0.4-0.7,0.6-1.3,0.6h-5.8c-0.8,0-1.5-0.4-2-1.1l-11.2-16.5h-25.2v15.9c0,1.1-0.6,1.7-1.7,1.7h-4.8c-1.1,0-1.7-0.6-1.7-1.7
			v-55.7c0-1.1,0.6-1.7,1.7-1.7h30.3c8.6,0,14.6,1.6,18.1,4.8s5.3,8.4,5.3,15.5V283.3z M1457.5,283.2v-0.8c0-5-1.1-8.4-3.3-10
			c-2.2-1.7-6.3-2.5-12.3-2.5h-23.2v25.7h23.2c6,0,10.1-0.8,12.3-2.4C1456.4,291.5,1457.5,288.2,1457.5,283.2z"/>
	</g>
	<g>
		<path class="st0" d="M892,167.8l25-165.3h50.9v232.9h-34.6v-167l-25.3,167h-34.6L846.1,70.7v164.7h-31.9V2.5H865L892,167.8z"/>
		<path class="st0" d="M1104.6,235.4h-36.9l-6.3-42.3h-44.9l-6.3,42.3h-33.6l37.3-232.9h53.6L1104.6,235.4z M1021,161.5h35.3
			l-17.6-117.8L1021,161.5z"/>
		<path class="st0" d="M1157.8,142.5l-11.3,21.3v71.5h-36.6V2.5h36.6V104L1195,2.5h35.9l-50.9,103.8l50.9,129.1h-37.6L1157.8,142.5z
			"/>
		<path class="st0" d="M1278.2,100.6h50.2v33.3h-50.2v68.2h63.2v33.3h-99.8V2.5h99.8v33.3h-63.2V100.6z"/>
		<path class="st0" d="M1428.6,235.4c-0.4-1.5-0.9-3-1.3-4.3c-0.4-1.3-0.8-3-1.2-5c-0.3-2-0.6-4.5-0.7-7.7c-0.1-3.1-0.2-7-0.2-11.6
			v-36.6c0-10.9-1.9-18.5-5.7-23s-9.9-6.7-18.3-6.7h-12.6v94.8H1352V2.5h55.2c19.1,0,32.9,4.4,41.4,13.3
			c8.5,8.9,12.8,22.3,12.8,40.3v18.3c0,24-8,39.7-23.9,47.2c9.3,3.8,15.7,9.9,19.1,18.5c3.4,8.5,5.2,18.9,5.2,31.1v35.9
			c0,5.8,0.2,10.8,0.7,15.1c0.4,4.3,1.6,8.7,3.3,13.1L1428.6,235.4L1428.6,235.4z M1388.7,35.8v71.5h14.3c6.9,0,12.3-1.8,16.1-5.3
			c3.9-3.5,5.8-10,5.8-19.3v-23c0-8.4-1.5-14.5-4.5-18.3c-3-3.8-7.7-5.7-14.1-5.7L1388.7,35.8L1388.7,35.8z"/>
	</g>
</g>
</svg>
