<svg width="200" height="159" viewBox="0 0 200 159" fill="none" xmlns="http://www.w3.org/2000/svg">
<path d="M194.472 0H5.528C2.48 0 0 2.76681 0 6.16182V129.888C0 133.283 2.48 136.046 5.528 136.046H73.08L68.056 152.201H52.672C50.984 152.201 49.62 153.725 49.62 155.601C49.62 157.481 50.988 159 52.672 159H148.856C150.544 159 151.908 157.476 151.908 155.601C151.908 153.72 150.54 152.201 148.856 152.201H131.868L127.404 136.046H194.472C197.52 136.046 200 133.283 200 129.888V6.16182C200 2.76681 197.52 0 194.472 0ZM125.476 152.201H74.516L79.54 136.046H121.012L125.476 152.201ZM193.892 129.242H6.108V6.8034H193.896V129.242H193.892Z" fill="white"/>
<path d="M15.452 126.694H184.548C187.596 126.694 190.076 123.931 190.076 120.536V15.5136C190.076 12.1186 187.596 9.3562 184.548 9.3562H15.452C12.404 9.3562 9.92395 12.1186 9.92395 15.5136V120.536C9.92395 123.931 12.404 126.694 15.452 126.694ZM16.032 16.1551H183.972V119.886H16.032V16.1551Z" fill="white"/>
<path d="M23.664 46.7685C24.444 46.7685 25.228 46.4344 25.824 45.7705L41.092 28.7642C42.284 27.4365 42.284 25.2846 41.092 23.9568C39.9 22.6291 37.964 22.6291 36.776 23.9568L21.504 40.9631C20.312 42.2908 20.312 44.4428 21.504 45.7705C22.1 46.4344 22.884 46.7685 23.664 46.7685Z" fill="white"/>
<path d="M68.072 23.1056L21.504 74.971C20.312 76.2987 20.312 78.4507 21.504 79.7784C22.1 80.4422 22.88 80.7764 23.664 80.7764C24.448 80.7764 25.228 80.4422 25.824 79.7784L72.388 27.913C73.58 26.5853 73.58 24.4334 72.388 23.1056C71.196 21.7779 69.26 21.7779 68.072 23.1056Z" fill="white"/>
<path d="M175.704 66.4703L140.588 105.584C139.396 106.912 139.396 109.064 140.588 110.392C141.184 111.056 141.964 111.39 142.748 111.39C143.532 111.39 144.312 111.056 144.908 110.392L180.024 71.2777C181.216 69.9499 181.216 67.798 180.024 66.4703C178.828 65.1426 176.896 65.1426 175.704 66.4703Z" fill="white"/>
</svg>
