<svg width="157" height="159" viewBox="0 0 157 159" fill="none" xmlns="http://www.w3.org/2000/svg">
<path d="M107.938 39.75H49.0625C47.257 39.75 45.7916 41.2341 45.7916 43.0626C45.7916 44.8911 47.257 46.3752 49.0625 46.3752H107.938C109.743 46.3752 111.208 44.8911 111.208 43.0626C111.208 41.2341 109.743 39.75 107.938 39.75Z" fill="white"/>
<path d="M139.848 26.4999C136.603 26.4999 133.515 27.4474 130.833 29.1433V9.9375C130.833 4.45852 126.431 0 121.021 0H9.8125C4.40244 0 0 4.45852 0 9.9375V149.062C0 154.541 4.40244 159 9.8125 159H121.021C126.431 159 130.833 154.541 130.833 149.062V77.5522L142.936 65.2959C142.942 65.2894 142.949 65.2894 142.955 65.2825C142.962 65.276 142.962 65.2692 142.968 65.2627L151.976 56.14C155.221 52.861 157 48.495 157 43.8576C157 34.2844 149.307 26.4999 139.848 26.4999ZM124.292 149.062C124.292 150.891 122.82 152.375 121.021 152.375H9.8125C8.01344 152.375 6.54156 150.891 6.54156 149.062V132.5H13.6851C15.0392 136.349 18.6373 139.125 22.8959 139.125C28.306 139.125 32.7084 134.666 32.7084 129.188C32.7084 123.709 28.306 119.25 22.8959 119.25C18.6373 119.25 15.0395 122.026 13.6854 125.875H6.54156V99.375H13.6851C15.0392 103.224 18.637 106 22.8956 106C28.3057 106 32.7081 101.541 32.7081 96.0624C32.7081 90.5834 28.3057 86.1249 22.8956 86.1249C18.637 86.1249 15.0392 88.9009 13.6851 92.7498H6.54156V66.2499H13.6851C15.0392 70.0991 18.637 72.8748 22.8956 72.8748C28.3057 72.8748 32.7081 68.4163 32.7081 62.9373C32.7081 57.4583 28.3057 52.9998 22.8956 52.9998C18.637 52.9998 15.0392 55.7758 13.6851 59.6247H6.54156V33.1248H13.6851C15.0392 36.974 18.6373 39.75 22.8959 39.75C28.306 39.75 32.7084 35.2915 32.7084 29.8125C32.7084 24.3335 28.306 19.875 22.8959 19.875C18.6373 19.875 15.0395 22.651 13.6854 26.4999H6.54156V9.9375C6.54156 8.109 8.01344 6.6249 9.8125 6.6249H121.021C122.82 6.6249 124.292 8.109 124.292 9.9375V35.066L118.705 40.7239L93.5002 66.2499H49.0625C47.257 66.2499 45.7916 67.734 45.7916 69.5625C45.7916 71.391 47.257 72.8751 49.0625 72.8751H86.9584L67.3334 92.7501H49.0625C47.257 92.7501 45.7916 94.2342 45.7916 96.0627C45.7916 97.8912 47.257 99.375 49.0625 99.375H64.4942L59.5879 119.25H49.0625C47.257 119.25 45.7916 120.734 45.7916 122.563C45.7916 124.391 47.257 125.875 49.0625 125.875H62.1459C62.4075 125.875 62.6758 125.842 62.9374 125.769L89.1039 119.144C89.176 119.125 89.2281 119.058 89.3002 119.032C89.7319 118.886 90.118 118.674 90.4516 118.376C90.5041 118.33 90.5758 118.33 90.6218 118.276L124.292 84.1775V149.062H124.292ZM19.625 129.188C19.625 127.359 21.0969 125.875 22.8959 125.875C24.695 125.875 26.1669 127.359 26.1669 129.188C26.1669 131.016 24.695 132.5 22.8959 132.5C21.0969 132.5 19.625 131.016 19.625 129.188ZM19.625 96.0624C19.625 94.2339 21.0969 92.7498 22.8959 92.7498C24.695 92.7498 26.1669 94.2339 26.1669 96.0624C26.1669 97.8909 24.6947 99.375 22.8959 99.375C21.0969 99.375 19.625 97.8909 19.625 96.0624ZM19.625 62.9376C19.625 61.1091 21.0969 59.625 22.8959 59.625C24.695 59.625 26.1669 61.1091 26.1669 62.9376C26.1669 64.7661 24.695 66.2502 22.8959 66.2502C21.0969 66.2499 19.625 64.7661 19.625 62.9376ZM19.625 29.8125C19.625 27.984 21.0969 26.4999 22.8959 26.4999C24.695 26.4999 26.1669 27.984 26.1669 29.8125C26.1669 31.641 24.695 33.1251 22.8959 33.1251C21.0969 33.1251 19.625 31.641 19.625 29.8125ZM71.1146 99.8852C73.2276 100.508 76.3544 101.886 79.4552 105.026C82.5559 108.167 83.9232 111.34 84.5381 113.473L66.6401 118.011L71.1146 99.8852ZM90.0527 109.485C88.9865 106.755 87.2135 103.502 84.0802 100.342C80.9534 97.1757 77.7414 95.3801 75.0527 94.3004L97.1701 71.9012L121.021 47.7531L136.014 62.9376L90.0527 109.485ZM147.351 51.4564L140.639 58.2536L125.646 43.0626L129.878 38.7761L132.364 36.2585C134.359 34.2248 137.022 33.1118 139.867 33.1118C145.709 33.1118 150.465 37.928 150.465 43.8576C150.458 46.7326 149.353 49.4226 147.351 51.4564Z" fill="white"/>
</svg>
