<svg width="179" height="159" viewBox="0 0 179 159" fill="none" xmlns="http://www.w3.org/2000/svg">
<path d="M173.755 56.7853H115.072V4.6587C115.072 2.08926 112.716 0 109.827 0H69.1728C66.2801 0 63.9281 2.08926 63.9281 4.6587V56.7853H5.2447C2.35564 56.7853 0 58.8745 0 61.444V97.5529C0 100.122 2.35564 102.212 5.2447 102.212H63.9281V154.338C63.9281 156.908 66.2837 158.997 69.1728 158.997H109.824C112.716 158.997 115.068 156.908 115.068 154.338V102.215H173.752C176.644 102.215 178.996 100.125 178.996 97.556V61.444C179 58.8745 176.644 56.7853 173.755 56.7853ZM172.18 96.1568H111.66C109.777 96.1568 108.252 97.5115 108.252 99.1842V152.942H70.748V99.1842C70.748 97.5115 69.2229 96.1568 67.3398 96.1568H6.8199V62.8432H67.3398C69.2229 62.8432 70.748 61.4885 70.748 59.8158V6.0579H108.252V59.8158C108.252 61.4885 109.777 62.8432 111.66 62.8432H172.18V96.1568Z" fill="white"/>
<path d="M96.3199 13.6295C94.4368 13.6295 92.9117 14.9842 92.9117 16.6569V42.399C92.9117 44.0717 94.4368 45.4263 96.3199 45.4263C98.2029 45.4263 99.728 44.0717 99.728 42.399V16.6569C99.728 14.9842 98.2029 13.6295 96.3199 13.6295Z" fill="white"/>
</svg>
